<?xml version="1.0" encoding="UTF-8"?>
<svg id="_Слой_1" data-name="Слой 1" xmlns="http://www.w3.org/2000/svg" viewBox="0 0 2465.21 976.39">
  <path d="m1782.98,0c32.34,0,55.84,12.89,70.5,38.66,14.64,25.77,21.98,64.44,21.98,115.98-1.02,6.06-4.05,9.62-9.1,10.61-5.07,1.02-8.6-1.52-10.61-7.58-2.04-16.16-9.62-31.84-22.74-47-13.15-15.16-34.87-22.74-65.19-22.74-32.36,0-65.19,12.65-98.55,37.9-33.36,25.28-65.95,59.13-97.79,101.58-31.84,42.45-61.66,92.25-89.45,149.34-27.81,57.12-52.57,117.5-74.29,181.18-21.75,63.68-39.18,129.13-52.31,196.34-13.15,67.23-20.73,132.16-22.74,194.82,0,11.13-1.02,18.45-3.03,21.98-2.04,3.55-5.57,5.31-10.61,5.31s-8.6-2.27-10.61-6.82c-2.04-4.55-4.05-9.85-6.06-15.92-45.48-166.78-100.59-314.34-165.26-442.71-64.7-128.35-137.97-230.45-219.84-306.26-22.24,124.32-53.82,234.5-94.76,330.52-40.94,96.04-88.95,176.63-144.03,241.82-55.1,65.19-116.25,114.73-183.45,148.58-67.23,33.88-138.23,50.79-213.02,50.79-47.52,0-88.95-5.8-124.32-17.44-35.39-11.61-64.7-27.53-87.94-47.76-23.26-20.21-40.7-43.97-52.31-71.26-11.63-27.29-17.44-57.09-17.44-89.45,0-40.41,9.85-80.09,29.56-119.02,19.71-38.9,48.26-70.5,85.66-94.76,5.05-2.01,8.58-.99,10.61,3.03,2.01,4.05,2.01,8.6,0,13.65-18.19,18.19-32.6,38.66-43.21,61.4-10.61,22.74-15.92,46.76-15.92,72.02,0,63.68,21.23,114.73,63.68,153.13,42.45,38.42,106.13,57.61,191.03,57.61,145.55,0,267.34-59.89,365.39-179.66,98.03-119.77,164.74-299.93,200.13-540.5-45.48-36.39-91.99-64.44-139.48-84.15-47.52-19.71-97.03-29.56-148.58-29.56-48.52,0-88.69,11.13-120.53,33.36-31.84,22.24-54.84,46.5-68.98,72.77-3.03,3.03-6.33,4.05-9.85,3.03-3.55-.99-5.83-4.03-6.82-9.1,9.1-19.19,22.22-38.66,39.42-58.37,17.18-19.71,37.15-37.38,59.89-53.06,22.74-15.66,48-28.29,75.81-37.9,27.79-9.59,56.86-14.4,87.18-14.4,42.45,0,84.15,7.34,125.08,21.98,40.94,14.66,80.59,35.63,119.02,62.92,2.01-6.06,5.05-12.89,9.1-20.47,4.03-7.58,8.34-14.4,12.89-20.47s8.58-10.35,12.13-12.89c3.53-2.51,5.8-1.75,6.82,2.27-1.02,13.15-2.04,26.03-3.03,38.66-1.02,12.65-2.53,25.02-4.55,37.15,44.47,35.39,86.66,77.58,126.6,126.6,39.92,49.04,76.8,102.34,110.68,159.95,33.85,57.61,64.44,118.52,91.73,182.69,27.29,64.2,50.53,129.13,69.74,194.82,8.08-55.58,20.21-113.19,36.39-172.84,16.16-59.63,35.87-118,59.13-175.11,23.24-57.09,48.75-111.44,76.57-162.98,27.79-51.55,57.09-96.77,87.94-135.69,30.82-38.9,62.4-69.74,94.76-92.48,32.34-22.74,64.67-34.11,97.03-34.11Z"/>
  <path d="m1711.72,588.26c35.37,0,61.64,10.61,78.84,31.84,17.18,21.23,25.77,46.01,25.77,74.29,0,39.42-7.84,76.07-23.5,109.92-15.68,33.88-34.87,63.68-57.61,89.45s-47.26,46.01-73.53,60.65c-26.3,14.66-50.03,21.98-71.26,21.98-34.37,0-60.41-10.35-78.08-31.08-17.7-20.7-26.53-47.24-26.53-79.6,0-29.3,6.3-60.12,18.95-92.48,12.63-32.34,29.3-62.16,50.03-89.45,20.7-27.29,44.73-50.03,72.02-68.23,27.29-18.19,55.58-27.29,84.9-27.29Zm-83.39,341.13c31.32,0,57.85-16.42,79.6-49.27,21.72-32.83,32.6-78.08,32.6-135.69,0-30.32-6.06-55.58-18.19-75.81-12.13-20.21-29.83-30.32-53.06-30.32-32.36,0-58.63,15.68-78.84,47-20.23,31.34-30.32,77.32-30.32,137.97,0,35.39,6.3,61.92,18.95,79.6,12.63,17.7,29.04,26.53,49.27,26.53Z"/>
  <path d="m1910.32,694.39c-3.03,2.04-5.57,1.28-7.58-2.27-2.04-3.53-2.53-6.82-1.52-9.85,37.38-30.32,89.45-61.64,156.16-94,8.08,0,12.13,4.55,12.13,13.65-13.15,23.26-26.03,48.52-38.66,75.81-12.65,27.29-23.76,54.34-33.36,81.11-9.62,26.79-17.44,52.57-23.5,77.32-6.06,24.78-9.1,45.25-9.1,61.4,0,20.23,7.06,30.32,21.23,30.32,11.11,0,21.98-4.79,32.6-14.4,10.61-9.59,22.98-21.98,37.15-37.15,2.01-2.01,4.55-1.75,7.58.76,3.03,2.53,3.53,6.33,1.52,11.37-22.24,26.3-44.23,47.52-65.95,63.68-21.75,16.18-42.71,24.26-62.92,24.26-35.39,0-53.06-16.68-53.06-50.03,0-18.19,2.77-39.66,8.34-64.44,5.54-24.76,13.12-50.03,22.74-75.81,9.59-25.77,20.21-51.03,31.84-75.81,11.61-24.76,23.5-46.24,35.63-64.44-11.13,6.06-23.5,13.65-37.15,22.74s-25.02,17.7-34.11,25.77Zm162.23-171.32c-3.03,3.03-6.33,3.03-9.85,0-3.55-3.03-6.33-7.32-8.34-12.89-2.04-5.54-3.03-11.61-3.03-18.19s1.52-12.37,4.55-17.44c11.11-14.14,27.53-32.08,49.27-53.82,21.72-21.72,44.2-40.18,67.47-55.34,2.01-.99,4.55-.24,7.58,2.27,3.03,2.53,4.03,4.81,3.03,6.82-21.23,19.21-41.46,42.21-60.65,68.98-19.21,26.79-35.89,53.33-50.03,79.6Z"/>
  <path d="m2289.33,632.23c0,15.16-1.52,32.36-4.55,51.55-3.03,19.21-7.08,38.92-12.13,59.13,20.21-48.52,42.45-86.42,66.71-113.71,24.26-27.29,50.53-40.94,78.84-40.94,15.16,0,26.77,3.55,34.87,10.61,8.08,7.08,12.13,16.18,12.13,27.29,0,10.12-3.79,23.26-11.37,39.42-7.58,16.18-13.91,27.29-18.95,33.36-2.04,1.02-4.05.76-6.06-.76-2.04-1.52-3.03-3.27-3.03-5.31,0-7.06-2.8-13.12-8.34-18.19-5.57-5.05-13.91-7.58-25.02-7.58-35.39,0-67.47,24.02-96.27,72.02-28.81,48.02-55.34,117-79.6,206.95-1.02,5.07-4.55,9.36-10.61,12.89-6.06,3.55-12.89,6.59-20.47,9.1-7.58,2.53-15.42,4.55-23.5,6.06-8.1,1.52-15.16,2.27-21.23,2.27-11.13,0-14.17-6.06-9.1-18.19,9.1-21.23,17.93-44.2,26.53-68.98,8.58-24.76,16.42-49.77,23.5-75.05,7.06-25.25,13.12-49.77,18.19-73.53,5.05-23.74,9.1-45.72,12.13-65.95,2.01-15.16,2.77-26.77,2.27-34.87-.52-8.08-4.81-12.13-12.89-12.13-10.12,0-20.47,4.31-31.08,12.89-10.61,8.6-20.47,19.47-29.56,32.6-4.05,3.03-7.84,3.29-11.37.76-3.55-2.51-4.31-5.8-2.27-9.85,6.06-8.08,13.38-16.42,21.98-25.02,8.58-8.58,18.19-16.68,28.81-24.26,10.61-7.58,21.72-13.88,33.36-18.95,11.61-5.05,23.5-7.58,35.63-7.58,16.16,0,27.29,3.79,33.36,11.37,6.06,7.58,9.1,18.45,9.1,32.6Z"/>
</svg>